<svg width="18" height="20" xmlns="http://www.w3.org/2000/svg">
 <title/>
 <desc/>

 <g>
  <title>background</title>
  <rect fill="#adad14" id="canvas_background" height="22" width="20" y="-1" x="-1"/>
 </g>
 <g>
  <title>Layer 1</title>
  <path fill="#fcfcf9" stroke="null" id="Shape" d="m13.725578,3.627517l-0.711037,0l0,-1.488255l-1.422073,0l0,1.488255l-5.688293,0l0,-1.488255l-1.422073,0l0,1.488255l-0.711037,0c-0.78214,0 -1.422073,0.669715 -1.422073,1.488255l0,10.417785c0,0.81854 0.639933,1.488255 1.422073,1.488255l9.954512,0c0.78214,0 1.422073,-0.669715 1.422073,-1.488255l0,-10.417785c0,-0.81854 -0.639933,-1.488255 -1.422073,-1.488255l0,0zm0,11.90604l-9.954512,0l0,-8.185403l9.954512,0l0,8.185403l0,0z"/>
  <rect fill="#fffff9" stroke="null" y="9.083893" x="4.33557" width="3.909396" id="Rectangle-path" height="2.818792"/>
 </g>
</svg>