<svg width="18" height="20" xmlns="http://www.w3.org/2000/svg">
 <title/>
 <desc/>

 <g>
  <title>background</title>
  <rect fill="#c1c109" id="canvas_background" height="22" width="20" y="-1" x="-1"/>
 </g>
 <g>
  <title>Layer 1</title>
  <path fill="#f9f9f7" stroke="null" id="Shape" d="m15.588674,2.420467l-0.954297,0l0,-1.780626l-1.908594,0l0,1.780626l-7.634377,0l0,-1.780626l-1.908594,0l0,1.780626l-0.954297,0c-1.049727,0 -1.908594,0.801282 -1.908594,1.780626l0,12.464383c0,0.979344 0.858867,1.780626 1.908594,1.780626l13.36016,0c1.049727,0 1.908594,-0.801282 1.908594,-1.780626l0,-12.464383c0,-0.979344 -0.858867,-1.780626 -1.908594,-1.780626l0,0zm0,14.245009l-13.36016,0l0,-9.793444l13.36016,0l0,9.793444l0,0z"/>
  <rect fill="#fcfcf9" stroke="null" y="8.223051" x="3.085942" width="4.634377" id="Rectangle-path" height="3.674617"/>
 </g>
</svg>